<?xml version="1.0" encoding="utf-8"?>
<!-- Generator: Adobe Illustrator 19.2.1, SVG Export Plug-In . SVG Version: 6.00 Build 0)  -->
<svg version="1.1" id="be" xmlns="http://www.w3.org/2000/svg" xmlns:xlink="http://www.w3.org/1999/xlink" x="0px" y="0px"
	 viewBox="0 0 36 36" style="enable-background:new 0 0 36 36;" xml:space="preserve">
<path d="M7.7,12.4v13.2h6.4c0.6,0,4.7-0.1,4.7-3.8c0-2.3-1.6-3.1-2.4-3.3c0.6-0.3,1.8-1,1.8-2.8c0-1-0.1-3.3-4.2-3.3H7.7z
	 M22.2,13.7v1.2h4.9v-1.2H22.2z M10.6,14.6h2.7c0.3,0,2-0.1,2,1.5c0,1.4-1.2,1.5-1.7,1.5h-3C10.6,17.7,10.6,14.6,10.6,14.6z
	 M24.8,16c-3.7,0-4.5,3.3-4.5,4.6c0,4.1,3.4,4.6,4.5,4.6c3,0,3.7-1.9,4.1-3h-2.1c-0.1,0.3-0.7,1.1-1.9,1.1c-2,0-2.2-1.5-2.2-2.3H29
	C29.2,18.7,28.2,16,24.8,16z M24.7,17.7c0.6,0,1.1,0.2,1.3,0.5c0.3,0.3,0.5,0.8,0.6,1.4h-3.9c0-0.2,0.1-0.4,0.1-0.6
	c0.1-0.2,0.2-0.4,0.3-0.7c0.2-0.2,0.4-0.4,0.7-0.5C24,17.8,24.3,17.7,24.7,17.7z M10.6,19.7h3.2c0.7,0,2.1,0.1,2.1,1.9
	c0,1.7-1.8,1.7-2.1,1.7h-3.1L10.6,19.7L10.6,19.7z"/>
<g>
	<path d="M18,1c9.4,0,17,7.6,17,17s-7.6,17-17,17S1,27.4,1,18S8.6,1,18,1 M18,0C8.1,0,0,8.1,0,18s8.1,18,18,18s18-8.1,18-18
		S27.9,0,18,0L18,0z"/>
</g>
</svg>
