<?xml version="1.0" encoding="utf-8"?>
<!-- Generator: Adobe Illustrator 19.2.1, SVG Export Plug-In . SVG Version: 6.00 Build 0)  -->
<svg version="1.1" id="Layer_1" xmlns="http://www.w3.org/2000/svg" xmlns:xlink="http://www.w3.org/1999/xlink" x="0px" y="0px"
	 viewBox="0 0 50 50" style="enable-background:new 0 0 50 50;" xml:space="preserve">
<polygon points="16,34.9 16,42 8,42 8,19 16,19 "/>
<path d="M12,16.5c-2.4,0-4-1.7-4-3.8S9.6,9,12,9s3.9,1.6,4,3.7C16,14.8,14.5,16.5,12,16.5z"/>
<path d="M42,42h-8V29c0-0.9-0.1-4-3.5-4c-3,0-3.5,2.9-3.5,4v13h-8V19h8v3.1c0,0,1.6-3.1,6.3-3.1c4.8,0,8.7,3.3,8.7,10V42z"/>
</svg>
