<?xml version="1.0" encoding="utf-8"?>
<!-- Generator: Adobe Illustrator 19.2.1, SVG Export Plug-In . SVG Version: 6.00 Build 0)  -->
<svg version="1.1" id="ln" xmlns="http://www.w3.org/2000/svg" xmlns:xlink="http://www.w3.org/1999/xlink" x="0px" y="0px"
	 viewBox="0 0 36 36" style="enable-background:new 0 0 36 36;" xml:space="preserve">
<path d="M14.6,25.6H11V15h3.7V25.6z M12.9,13.8c-1.1,0-1.8-0.8-1.8-1.7s0.7-1.7,1.8-1.7s1.8,0.7,1.8,1.7C14.7,13,14,13.8,12.9,13.8z
	 M26.7,25.6h-3.7v-6c0-0.4-0.1-1.8-1.7-1.8c-1.4,0-1.7,1.3-1.7,1.8v6h-3.7V15h3.7v1.4c0,0,0.7-1.4,2.9-1.4s4,1.6,4,4.6L26.7,25.6
	L26.7,25.6z"/>
<g>
	<path d="M18,1c9.4,0,17,7.6,17,17s-7.6,17-17,17S1,27.4,1,18S8.6,1,18,1 M18,0C8.1,0,0,8.1,0,18s8.1,18,18,18s18-8.1,18-18
		S27.9,0,18,0L18,0z"/>
</g>
</svg>
