<?xml version="1.0" encoding="utf-8"?>
<!-- Generator: Adobe Illustrator 19.2.1, SVG Export Plug-In . SVG Version: 6.00 Build 0)  -->
<svg version="1.1" id="vk" xmlns="http://www.w3.org/2000/svg" xmlns:xlink="http://www.w3.org/1999/xlink" x="0px" y="0px"
	 viewBox="0 0 36 36" style="enable-background:new 0 0 36 36;" xml:space="preserve">
<path d="M25.5,22.1c1.5,1.4,1.8,2.2,1.9,2.2c0.6,1-0.8,1.2-0.8,1.2h-2.5c0,0-0.5,0.1-1.3-0.4c-1-0.6-1.8-2.3-2.5-2.2
	c-0.8,0.2-0.6,1.8-0.6,1.8s0,0.3-0.1,0.4c-0.2,0.2-0.5,0.2-0.5,0.2h-1.2c0,0-2.5,0.2-4.8-2.2c-2.5-2.5-4.8-7.5-4.8-7.5
	s-0.1-0.3,0-0.4c0.1-0.2,0.5-0.2,0.5-0.2h2.8c0,0,0.2,0,0.4,0.2c0.1,0.1,0.2,0.3,0.2,0.3s0.4,1.2,1,2.2c1.2,2,1.7,2.4,2,2.2
	c0.5-0.3,0.4-2.8,0.4-2.8s0-0.9-0.3-1.3c-0.1-0.5-0.5-0.5-0.8-0.6c-0.1,0,0.1-0.4,0.4-0.5c0.5-0.2,1.4-0.2,2.4-0.2
	c0.9,0,1,0.1,1.4,0.1c1.1,0.1,0.9,1,0.9,3.1c0,0.6-0.1,1.6,0.3,1.9c0.2,0.1,0.8,0,2-2.2c0.6-1,1-2.2,1-2.2s0.1-0.2,0.2-0.3
	c0.1-0.1,0.3-0.1,0.3-0.1h2.9c0,0,0.9-0.1,1,0.3c0.1,0.4-0.3,1.4-1.5,2.9C24.1,20.8,23.8,20.6,25.5,22.1z"/>
<g>
	<path d="M18,1c9.4,0,17,7.6,17,17s-7.6,17-17,17S1,27.4,1,18S8.6,1,18,1 M18,0C8.1,0,0,8.1,0,18s8.1,18,18,18s18-8.1,18-18
		S27.9,0,18,0L18,0z"/>
</g>
</svg>
